<?xml version="1.0" encoding="UTF-8" standalone="no"?>
<!DOCTYPE svg PUBLIC "-//W3C//DTD SVG 1.1//EN"
 "http://www.w3.org/Graphics/SVG/1.1/DTD/svg11.dtd">
<!-- Generated by graphviz version 2.43.0 (0)
 -->
<!-- Title: exceptions Pages: 1 -->
<svg width="1008pt" height="1439pt"
 viewBox="0.00 0.00 1008.00 1439.36" xmlns="http://www.w3.org/2000/svg" xmlns:xlink="http://www.w3.org/1999/xlink">
<g id="graph0" class="graph" transform="scale(0.19 0.19) rotate(0) translate(4 7681.14)">
<title>exceptions</title>
<g id="clust1" class="cluster">
<title>cluster_row1</title>
</g>
<g id="clust2" class="cluster">
<title>cluster_row2</title>
</g>
<g id="clust3" class="cluster">
<title>cluster_row3</title>
</g>
<g id="clust4" class="cluster">
<title>cluster_row4</title>
</g>
<g id="clust5" class="cluster">
<title>cluster_row5</title>
</g>
<g id="clust6" class="cluster">
<title>cluster_row6</title>
</g>
<!-- CryptnoxException -->
<g id="node1" class="node">
<title>CryptnoxException</title>
<path fill="none" stroke="black" stroke-width="2" d="M2754,-6733.96C2754,-6733.96 2620,-6733.96 2620,-6733.96 2614,-6733.96 2608,-6727.96 2608,-6721.96 2608,-6721.96 2608,-6701.96 2608,-6701.96 2608,-6695.96 2614,-6689.96 2620,-6689.96 2620,-6689.96 2754,-6689.96 2754,-6689.96 2760,-6689.96 2766,-6695.96 2766,-6701.96 2766,-6701.96 2766,-6721.96 2766,-6721.96 2766,-6727.96 2760,-6733.96 2754,-6733.96"/>
<text text-anchor="middle" x="2687" y="-6717.16" font-family="Arial" font-size="16.00">CryptnoxException</text>
<text text-anchor="middle" x="2687" y="-6699.16" font-family="Arial" font-size="16.00">(Base)</text>
</g>
<!-- CardException -->
<g id="node2" class="node">
<title>CardException</title>
<path fill="none" stroke="black" d="M810,-1666.46C810,-1666.46 676,-1666.46 676,-1666.46 670,-1666.46 664,-1660.46 664,-1654.46 664,-1654.46 664,-1635.46 664,-1635.46 664,-1629.46 670,-1623.46 676,-1623.46 676,-1623.46 810,-1623.46 810,-1623.46 816,-1623.46 822,-1629.46 822,-1635.46 822,-1635.46 822,-1654.46 822,-1654.46 822,-1660.46 816,-1666.46 810,-1666.46"/>
<text text-anchor="middle" x="743" y="-1642.46" font-family="Arial" font-size="10.00">CardException</text>
</g>
<!-- CryptnoxException&#45;&gt;CardException -->
<g id="edge1" class="edge">
<title>CryptnoxException&#45;&gt;CardException</title>
<path fill="none" stroke="black" stroke-width="1.5" d="M2607.78,-6719.96C2243.03,-6719.96 743,-6719.96 743,-6719.96 743,-6719.96 743,-1676.48 743,-1676.48"/>
<polygon fill="black" stroke="black" stroke-width="1.5" points="746.5,-1676.48 743,-1666.48 739.5,-1676.48 746.5,-1676.48"/>
</g>
<!-- CardClosedException -->
<g id="node3" class="node">
<title>CardClosedException</title>
<path fill="none" stroke="black" d="M594,-1666.46C594,-1666.46 460,-1666.46 460,-1666.46 454,-1666.46 448,-1660.46 448,-1654.46 448,-1654.46 448,-1635.46 448,-1635.46 448,-1629.46 454,-1623.46 460,-1623.46 460,-1623.46 594,-1623.46 594,-1623.46 600,-1623.46 606,-1629.46 606,-1635.46 606,-1635.46 606,-1654.46 606,-1654.46 606,-1660.46 600,-1666.46 594,-1666.46"/>
<text text-anchor="middle" x="527" y="-1642.46" font-family="Arial" font-size="10.00">CardClosedException</text>
</g>
<!-- CryptnoxException&#45;&gt;CardClosedException -->
<g id="edge2" class="edge">
<title>CryptnoxException&#45;&gt;CardClosedException</title>
<path fill="none" stroke="black" stroke-width="1.5" d="M2607.89,-6722.96C2218.8,-6722.96 527,-6722.96 527,-6722.96 527,-6722.96 527,-1676.49 527,-1676.49"/>
<polygon fill="black" stroke="black" stroke-width="1.5" points="530.5,-1676.49 527,-1666.49 523.5,-1676.49 530.5,-1676.49"/>
</g>
<!-- CardNotBlocked -->
<g id="node4" class="node">
<title>CardNotBlocked</title>
<path fill="none" stroke="black" d="M378,-1666.46C378,-1666.46 244,-1666.46 244,-1666.46 238,-1666.46 232,-1660.46 232,-1654.46 232,-1654.46 232,-1635.46 232,-1635.46 232,-1629.46 238,-1623.46 244,-1623.46 244,-1623.46 378,-1623.46 378,-1623.46 384,-1623.46 390,-1629.46 390,-1635.46 390,-1635.46 390,-1654.46 390,-1654.46 390,-1660.46 384,-1666.46 378,-1666.46"/>
<text text-anchor="middle" x="311" y="-1642.46" font-family="Arial" font-size="10.00">CardNotBlocked</text>
</g>
<!-- CryptnoxException&#45;&gt;CardNotBlocked -->
<g id="edge3" class="edge">
<title>CryptnoxException&#45;&gt;CardNotBlocked</title>
<path fill="none" stroke="black" stroke-width="1.5" d="M2607.95,-6726.96C2195.67,-6726.96 311,-6726.96 311,-6726.96 311,-6726.96 311,-1676.51 311,-1676.51"/>
<polygon fill="black" stroke="black" stroke-width="1.5" points="314.5,-1676.51 311,-1666.51 307.5,-1676.51 314.5,-1676.51"/>
</g>
<!-- CardTypeException -->
<g id="node5" class="node">
<title>CardTypeException</title>
<path fill="none" stroke="black" d="M162,-1666.46C162,-1666.46 28,-1666.46 28,-1666.46 22,-1666.46 16,-1660.46 16,-1654.46 16,-1654.46 16,-1635.46 16,-1635.46 16,-1629.46 22,-1623.46 28,-1623.46 28,-1623.46 162,-1623.46 162,-1623.46 168,-1623.46 174,-1629.46 174,-1635.46 174,-1635.46 174,-1654.46 174,-1654.46 174,-1660.46 168,-1666.46 162,-1666.46"/>
<text text-anchor="middle" x="95" y="-1642.46" font-family="Arial" font-size="10.00">CardTypeException</text>
</g>
<!-- CryptnoxException&#45;&gt;CardTypeException -->
<g id="edge4" class="edge">
<title>CryptnoxException&#45;&gt;CardTypeException</title>
<path fill="none" stroke="black" stroke-width="1.5" d="M2607.66,-6729.96C2172.48,-6729.96 95,-6729.96 95,-6729.96 95,-6729.96 95,-1676.52 95,-1676.52"/>
<polygon fill="black" stroke="black" stroke-width="1.5" points="98.5,-1676.52 95,-1666.52 91.5,-1676.52 98.5,-1676.52"/>
</g>
<!-- ConnectionException -->
<g id="node6" class="node">
<title>ConnectionException</title>
<path fill="none" stroke="black" d="M1674,-1666.46C1674,-1666.46 1540,-1666.46 1540,-1666.46 1534,-1666.46 1528,-1660.46 1528,-1654.46 1528,-1654.46 1528,-1635.46 1528,-1635.46 1528,-1629.46 1534,-1623.46 1540,-1623.46 1540,-1623.46 1674,-1623.46 1674,-1623.46 1680,-1623.46 1686,-1629.46 1686,-1635.46 1686,-1635.46 1686,-1654.46 1686,-1654.46 1686,-1660.46 1680,-1666.46 1674,-1666.46"/>
<text text-anchor="middle" x="1607" y="-1642.46" font-family="Arial" font-size="10.00">ConnectionException</text>
</g>
<!-- CryptnoxException&#45;&gt;ConnectionException -->
<g id="edge5" class="edge">
<title>CryptnoxException&#45;&gt;ConnectionException</title>
<path fill="none" stroke="black" stroke-width="1.5" d="M2607.59,-6705.96C2358.17,-6705.96 1607,-6705.96 1607,-6705.96 1607,-6705.96 1607,-1676.69 1607,-1676.69"/>
<polygon fill="black" stroke="black" stroke-width="1.5" points="1610.5,-1676.69 1607,-1666.69 1603.5,-1676.69 1610.5,-1676.69"/>
</g>
<!-- DataException -->
<g id="node7" class="node">
<title>DataException</title>
<path fill="none" stroke="black" d="M1458,-1666.46C1458,-1666.46 1324,-1666.46 1324,-1666.46 1318,-1666.46 1312,-1660.46 1312,-1654.46 1312,-1654.46 1312,-1635.46 1312,-1635.46 1312,-1629.46 1318,-1623.46 1324,-1623.46 1324,-1623.46 1458,-1623.46 1458,-1623.46 1464,-1623.46 1470,-1629.46 1470,-1635.46 1470,-1635.46 1470,-1654.46 1470,-1654.46 1470,-1660.46 1464,-1666.46 1458,-1666.46"/>
<text text-anchor="middle" x="1391" y="-1642.46" font-family="Arial" font-size="10.00">DataException</text>
</g>
<!-- CryptnoxException&#45;&gt;DataException -->
<g id="edge6" class="edge">
<title>CryptnoxException&#45;&gt;DataException</title>
<path fill="none" stroke="black" stroke-width="1.5" d="M2607.88,-6709.96C2326.5,-6709.96 1391,-6709.96 1391,-6709.96 1391,-6709.96 1391,-1676.71 1391,-1676.71"/>
<polygon fill="black" stroke="black" stroke-width="1.5" points="1394.5,-1676.71 1391,-1666.71 1387.5,-1676.71 1394.5,-1676.71"/>
</g>
<!-- DataValidationException -->
<g id="node8" class="node">
<title>DataValidationException</title>
<path fill="none" stroke="black" d="M1242,-1666.46C1242,-1666.46 1108,-1666.46 1108,-1666.46 1102,-1666.46 1096,-1660.46 1096,-1654.46 1096,-1654.46 1096,-1635.46 1096,-1635.46 1096,-1629.46 1102,-1623.46 1108,-1623.46 1108,-1623.46 1242,-1623.46 1242,-1623.46 1248,-1623.46 1254,-1629.46 1254,-1635.46 1254,-1635.46 1254,-1654.46 1254,-1654.46 1254,-1660.46 1248,-1666.46 1242,-1666.46"/>
<text text-anchor="middle" x="1175" y="-1642.46" font-family="Arial" font-size="10.00">DataValidationException</text>
</g>
<!-- CryptnoxException&#45;&gt;DataValidationException -->
<g id="edge7" class="edge">
<title>CryptnoxException&#45;&gt;DataValidationException</title>
<path fill="none" stroke="black" stroke-width="1.5" d="M2607.84,-6712.96C2296.73,-6712.96 1175,-6712.96 1175,-6712.96 1175,-6712.96 1175,-1676.72 1175,-1676.72"/>
<polygon fill="black" stroke="black" stroke-width="1.5" points="1178.5,-1676.72 1175,-1666.72 1171.5,-1676.72 1178.5,-1676.72"/>
</g>
<!-- CertificateException -->
<g id="node9" class="node">
<title>CertificateException</title>
<path fill="none" stroke="black" d="M1026,-1666.46C1026,-1666.46 892,-1666.46 892,-1666.46 886,-1666.46 880,-1660.46 880,-1654.46 880,-1654.46 880,-1635.46 880,-1635.46 880,-1629.46 886,-1623.46 892,-1623.46 892,-1623.46 1026,-1623.46 1026,-1623.46 1032,-1623.46 1038,-1629.46 1038,-1635.46 1038,-1635.46 1038,-1654.46 1038,-1654.46 1038,-1660.46 1032,-1666.46 1026,-1666.46"/>
<text text-anchor="middle" x="959" y="-1642.46" font-family="Arial" font-size="10.00">CertificateException</text>
</g>
<!-- CryptnoxException&#45;&gt;CertificateException -->
<g id="edge8" class="edge">
<title>CryptnoxException&#45;&gt;CertificateException</title>
<path fill="none" stroke="black" stroke-width="1.5" d="M2607.98,-6716.96C2269.48,-6716.96 959,-6716.96 959,-6716.96 959,-6716.96 959,-1676.47 959,-1676.47"/>
<polygon fill="black" stroke="black" stroke-width="1.5" points="962.5,-1676.47 959,-1666.47 955.5,-1676.47 962.5,-1676.47"/>
</g>
<!-- KeyAlreadyGenerated -->
<g id="node10" class="node">
<title>KeyAlreadyGenerated</title>
<path fill="none" stroke="black" d="M2538,-1666.46C2538,-1666.46 2404,-1666.46 2404,-1666.46 2398,-1666.46 2392,-1660.46 2392,-1654.46 2392,-1654.46 2392,-1635.46 2392,-1635.46 2392,-1629.46 2398,-1623.46 2404,-1623.46 2404,-1623.46 2538,-1623.46 2538,-1623.46 2544,-1623.46 2550,-1629.46 2550,-1635.46 2550,-1635.46 2550,-1654.46 2550,-1654.46 2550,-1660.46 2544,-1666.46 2538,-1666.46"/>
<text text-anchor="middle" x="2471" y="-1642.46" font-family="Arial" font-size="10.00">KeyAlreadyGenerated</text>
</g>
<!-- CryptnoxException&#45;&gt;KeyAlreadyGenerated -->
<g id="edge9" class="edge">
<title>CryptnoxException&#45;&gt;KeyAlreadyGenerated</title>
<path fill="none" stroke="black" stroke-width="1.5" d="M2607.8,-6692.96C2546.15,-6692.96 2471,-6692.96 2471,-6692.96 2471,-6692.96 2471,-1676.64 2471,-1676.64"/>
<polygon fill="black" stroke="black" stroke-width="1.5" points="2474.5,-1676.64 2471,-1666.64 2467.5,-1676.64 2474.5,-1676.64"/>
</g>
<!-- KeyGenerationException -->
<g id="node11" class="node">
<title>KeyGenerationException</title>
<path fill="none" stroke="black" d="M2322,-1666.46C2322,-1666.46 2188,-1666.46 2188,-1666.46 2182,-1666.46 2176,-1660.46 2176,-1654.46 2176,-1654.46 2176,-1635.46 2176,-1635.46 2176,-1629.46 2182,-1623.46 2188,-1623.46 2188,-1623.46 2322,-1623.46 2322,-1623.46 2328,-1623.46 2334,-1629.46 2334,-1635.46 2334,-1635.46 2334,-1654.46 2334,-1654.46 2334,-1660.46 2328,-1666.46 2322,-1666.46"/>
<text text-anchor="middle" x="2255" y="-1642.46" font-family="Arial" font-size="10.00">KeyGenerationException</text>
</g>
<!-- CryptnoxException&#45;&gt;KeyGenerationException -->
<g id="edge10" class="edge">
<title>CryptnoxException&#45;&gt;KeyGenerationException</title>
<path fill="none" stroke="black" stroke-width="1.5" d="M2607.76,-6695.96C2483.05,-6695.96 2255,-6695.96 2255,-6695.96 2255,-6695.96 2255,-1676.65 2255,-1676.65"/>
<polygon fill="black" stroke="black" stroke-width="1.5" points="2258.5,-1676.65 2255,-1666.65 2251.5,-1676.65 2258.5,-1676.65"/>
</g>
<!-- KeySelectionException -->
<g id="node12" class="node">
<title>KeySelectionException</title>
<path fill="none" stroke="black" d="M2106,-1666.46C2106,-1666.46 1972,-1666.46 1972,-1666.46 1966,-1666.46 1960,-1660.46 1960,-1654.46 1960,-1654.46 1960,-1635.46 1960,-1635.46 1960,-1629.46 1966,-1623.46 1972,-1623.46 1972,-1623.46 2106,-1623.46 2106,-1623.46 2112,-1623.46 2118,-1629.46 2118,-1635.46 2118,-1635.46 2118,-1654.46 2118,-1654.46 2118,-1660.46 2112,-1666.46 2106,-1666.46"/>
<text text-anchor="middle" x="2039" y="-1642.46" font-family="Arial" font-size="10.00">KeySelectionException</text>
</g>
<!-- CryptnoxException&#45;&gt;KeySelectionException -->
<g id="edge11" class="edge">
<title>CryptnoxException&#45;&gt;KeySelectionException</title>
<path fill="none" stroke="black" stroke-width="1.5" d="M2607.87,-6699.96C2435,-6699.96 2039,-6699.96 2039,-6699.96 2039,-6699.96 2039,-1676.67 2039,-1676.67"/>
<polygon fill="black" stroke="black" stroke-width="1.5" points="2042.5,-1676.67 2039,-1666.67 2035.5,-1676.67 2042.5,-1676.67"/>
</g>
<!-- DerivationSelectionException -->
<g id="node13" class="node">
<title>DerivationSelectionException</title>
<path fill="none" stroke="black" d="M1890,-1666.46C1890,-1666.46 1756,-1666.46 1756,-1666.46 1750,-1666.46 1744,-1660.46 1744,-1654.46 1744,-1654.46 1744,-1635.46 1744,-1635.46 1744,-1629.46 1750,-1623.46 1756,-1623.46 1756,-1623.46 1890,-1623.46 1890,-1623.46 1896,-1623.46 1902,-1629.46 1902,-1635.46 1902,-1635.46 1902,-1654.46 1902,-1654.46 1902,-1660.46 1896,-1666.46 1890,-1666.46"/>
<text text-anchor="middle" x="1823" y="-1642.46" font-family="Arial" font-size="10.00">DerivationSelectionException</text>
</g>
<!-- CryptnoxException&#45;&gt;DerivationSelectionException -->
<g id="edge12" class="edge">
<title>CryptnoxException&#45;&gt;DerivationSelectionException</title>
<path fill="none" stroke="black" stroke-width="1.5" d="M2607.65,-6702.96C2394.06,-6702.96 1823,-6702.96 1823,-6702.96 1823,-6702.96 1823,-1676.68 1823,-1676.68"/>
<polygon fill="black" stroke="black" stroke-width="1.5" points="1826.5,-1676.68 1823,-1666.68 1819.5,-1676.68 1826.5,-1676.68"/>
</g>
<!-- PinException -->
<g id="node14" class="node">
<title>PinException</title>
<path fill="none" stroke="black" d="M3402,-1666.46C3402,-1666.46 3268,-1666.46 3268,-1666.46 3262,-1666.46 3256,-1660.46 3256,-1654.46 3256,-1654.46 3256,-1635.46 3256,-1635.46 3256,-1629.46 3262,-1623.46 3268,-1623.46 3268,-1623.46 3402,-1623.46 3402,-1623.46 3408,-1623.46 3414,-1629.46 3414,-1635.46 3414,-1635.46 3414,-1654.46 3414,-1654.46 3414,-1660.46 3408,-1666.46 3402,-1666.46"/>
<text text-anchor="middle" x="3335" y="-1642.46" font-family="Arial" font-size="10.00">PinException</text>
</g>
<!-- CryptnoxException&#45;&gt;PinException -->
<g id="edge13" class="edge">
<title>CryptnoxException&#45;&gt;PinException</title>
<path fill="none" stroke="black" stroke-width="1.5" d="M2766.13,-6699.96C2939,-6699.96 3335,-6699.96 3335,-6699.96 3335,-6699.96 3335,-1676.67 3335,-1676.67"/>
<polygon fill="black" stroke="black" stroke-width="1.5" points="3338.5,-1676.67 3335,-1666.67 3331.5,-1676.67 3338.5,-1676.67"/>
</g>
<!-- PukException -->
<g id="node15" class="node">
<title>PukException</title>
<path fill="none" stroke="black" d="M3186,-1666.46C3186,-1666.46 3052,-1666.46 3052,-1666.46 3046,-1666.46 3040,-1660.46 3040,-1654.46 3040,-1654.46 3040,-1635.46 3040,-1635.46 3040,-1629.46 3046,-1623.46 3052,-1623.46 3052,-1623.46 3186,-1623.46 3186,-1623.46 3192,-1623.46 3198,-1629.46 3198,-1635.46 3198,-1635.46 3198,-1654.46 3198,-1654.46 3198,-1660.46 3192,-1666.46 3186,-1666.46"/>
<text text-anchor="middle" x="3119" y="-1642.46" font-family="Arial" font-size="10.00">PukException</text>
</g>
<!-- CryptnoxException&#45;&gt;PukException -->
<g id="edge14" class="edge">
<title>CryptnoxException&#45;&gt;PukException</title>
<path fill="none" stroke="black" stroke-width="1.5" d="M2766.24,-6695.96C2890.95,-6695.96 3119,-6695.96 3119,-6695.96 3119,-6695.96 3119,-1676.65 3119,-1676.65"/>
<polygon fill="black" stroke="black" stroke-width="1.5" points="3122.5,-1676.65 3119,-1666.65 3115.5,-1676.65 3122.5,-1676.65"/>
</g>
<!-- PinAuthenticationException -->
<g id="node16" class="node">
<title>PinAuthenticationException</title>
<path fill="none" stroke="black" d="M2970,-1666.46C2970,-1666.46 2836,-1666.46 2836,-1666.46 2830,-1666.46 2824,-1660.46 2824,-1654.46 2824,-1654.46 2824,-1635.46 2824,-1635.46 2824,-1629.46 2830,-1623.46 2836,-1623.46 2836,-1623.46 2970,-1623.46 2970,-1623.46 2976,-1623.46 2982,-1629.46 2982,-1635.46 2982,-1635.46 2982,-1654.46 2982,-1654.46 2982,-1660.46 2976,-1666.46 2970,-1666.46"/>
<text text-anchor="middle" x="2903" y="-1642.46" font-family="Arial" font-size="10.00">PinAuthenticationException</text>
</g>
<!-- CryptnoxException&#45;&gt;PinAuthenticationException -->
<g id="edge15" class="edge">
<title>CryptnoxException&#45;&gt;PinAuthenticationException</title>
<path fill="none" stroke="black" stroke-width="1.5" d="M2766.2,-6692.96C2827.85,-6692.96 2903,-6692.96 2903,-6692.96 2903,-6692.96 2903,-1676.64 2903,-1676.64"/>
<polygon fill="black" stroke="black" stroke-width="1.5" points="2906.5,-1676.64 2903,-1666.64 2899.5,-1676.64 2906.5,-1676.64"/>
</g>
<!-- SecureChannelException -->
<g id="node17" class="node">
<title>SecureChannelException</title>
<path fill="none" stroke="black" d="M2754,-1666.46C2754,-1666.46 2620,-1666.46 2620,-1666.46 2614,-1666.46 2608,-1660.46 2608,-1654.46 2608,-1654.46 2608,-1635.46 2608,-1635.46 2608,-1629.46 2614,-1623.46 2620,-1623.46 2620,-1623.46 2754,-1623.46 2754,-1623.46 2760,-1623.46 2766,-1629.46 2766,-1635.46 2766,-1635.46 2766,-1654.46 2766,-1654.46 2766,-1660.46 2760,-1666.46 2754,-1666.46"/>
<text text-anchor="middle" x="2687" y="-1642.46" font-family="Arial" font-size="10.00">SecureChannelException</text>
</g>
<!-- CryptnoxException&#45;&gt;SecureChannelException -->
<g id="edge16" class="edge">
<title>CryptnoxException&#45;&gt;SecureChannelException</title>
<path fill="none" stroke="black" stroke-width="1.5" d="M2687,-6689.92C2687,-6689.92 2687,-1676.64 2687,-1676.64"/>
<polygon fill="black" stroke="black" stroke-width="1.5" points="2690.5,-1676.64 2687,-1666.64 2683.5,-1676.64 2690.5,-1676.64"/>
</g>
<!-- FirmwareException -->
<g id="node18" class="node">
<title>FirmwareException</title>
<path fill="none" stroke="black" d="M4266,-1666.46C4266,-1666.46 4132,-1666.46 4132,-1666.46 4126,-1666.46 4120,-1660.46 4120,-1654.46 4120,-1654.46 4120,-1635.46 4120,-1635.46 4120,-1629.46 4126,-1623.46 4132,-1623.46 4132,-1623.46 4266,-1623.46 4266,-1623.46 4272,-1623.46 4278,-1629.46 4278,-1635.46 4278,-1635.46 4278,-1654.46 4278,-1654.46 4278,-1660.46 4272,-1666.46 4266,-1666.46"/>
<text text-anchor="middle" x="4199" y="-1642.46" font-family="Arial" font-size="10.00">FirmwareException</text>
</g>
<!-- CryptnoxException&#45;&gt;FirmwareException -->
<g id="edge17" class="edge">
<title>CryptnoxException&#45;&gt;FirmwareException</title>
<path fill="none" stroke="black" stroke-width="1.5" d="M2766.16,-6712.96C3077.27,-6712.96 4199,-6712.96 4199,-6712.96 4199,-6712.96 4199,-1676.72 4199,-1676.72"/>
<polygon fill="black" stroke="black" stroke-width="1.5" points="4202.5,-1676.72 4199,-1666.72 4195.5,-1676.72 4202.5,-1676.72"/>
</g>
<!-- GenericException -->
<g id="node19" class="node">
<title>GenericException</title>
<path fill="none" stroke="black" d="M4050,-1666.46C4050,-1666.46 3916,-1666.46 3916,-1666.46 3910,-1666.46 3904,-1660.46 3904,-1654.46 3904,-1654.46 3904,-1635.46 3904,-1635.46 3904,-1629.46 3910,-1623.46 3916,-1623.46 3916,-1623.46 4050,-1623.46 4050,-1623.46 4056,-1623.46 4062,-1629.46 4062,-1635.46 4062,-1635.46 4062,-1654.46 4062,-1654.46 4062,-1660.46 4056,-1666.46 4050,-1666.46"/>
<text text-anchor="middle" x="3983" y="-1642.46" font-family="Arial" font-size="10.00">GenericException</text>
</g>
<!-- CryptnoxException&#45;&gt;GenericException -->
<g id="edge18" class="edge">
<title>CryptnoxException&#45;&gt;GenericException</title>
<path fill="none" stroke="black" stroke-width="1.5" d="M2766.12,-6709.96C3047.5,-6709.96 3983,-6709.96 3983,-6709.96 3983,-6709.96 3983,-1676.71 3983,-1676.71"/>
<polygon fill="black" stroke="black" stroke-width="1.5" points="3986.5,-1676.71 3983,-1666.71 3979.5,-1676.71 3986.5,-1676.71"/>
</g>
<!-- GenuineCheckException -->
<g id="node20" class="node">
<title>GenuineCheckException</title>
<path fill="none" stroke="black" d="M3834,-1666.46C3834,-1666.46 3700,-1666.46 3700,-1666.46 3694,-1666.46 3688,-1660.46 3688,-1654.46 3688,-1654.46 3688,-1635.46 3688,-1635.46 3688,-1629.46 3694,-1623.46 3700,-1623.46 3700,-1623.46 3834,-1623.46 3834,-1623.46 3840,-1623.46 3846,-1629.46 3846,-1635.46 3846,-1635.46 3846,-1654.46 3846,-1654.46 3846,-1660.46 3840,-1666.46 3834,-1666.46"/>
<text text-anchor="middle" x="3767" y="-1642.46" font-family="Arial" font-size="10.00">GenuineCheckException</text>
</g>
<!-- CryptnoxException&#45;&gt;GenuineCheckException -->
<g id="edge19" class="edge">
<title>CryptnoxException&#45;&gt;GenuineCheckException</title>
<path fill="none" stroke="black" stroke-width="1.5" d="M2766.41,-6705.96C3015.83,-6705.96 3767,-6705.96 3767,-6705.96 3767,-6705.96 3767,-1676.69 3767,-1676.69"/>
<polygon fill="black" stroke="black" stroke-width="1.5" points="3770.5,-1676.69 3767,-1666.69 3763.5,-1676.69 3770.5,-1676.69"/>
</g>
<!-- InitializationException -->
<g id="node21" class="node">
<title>InitializationException</title>
<path fill="none" stroke="black" d="M3618,-1666.46C3618,-1666.46 3484,-1666.46 3484,-1666.46 3478,-1666.46 3472,-1660.46 3472,-1654.46 3472,-1654.46 3472,-1635.46 3472,-1635.46 3472,-1629.46 3478,-1623.46 3484,-1623.46 3484,-1623.46 3618,-1623.46 3618,-1623.46 3624,-1623.46 3630,-1629.46 3630,-1635.46 3630,-1635.46 3630,-1654.46 3630,-1654.46 3630,-1660.46 3624,-1666.46 3618,-1666.46"/>
<text text-anchor="middle" x="3551" y="-1642.46" font-family="Arial" font-size="10.00">InitializationException</text>
</g>
<!-- CryptnoxException&#45;&gt;InitializationException -->
<g id="edge20" class="edge">
<title>CryptnoxException&#45;&gt;InitializationException</title>
<path fill="none" stroke="black" stroke-width="1.5" d="M2766.35,-6702.96C2979.94,-6702.96 3551,-6702.96 3551,-6702.96 3551,-6702.96 3551,-1676.68 3551,-1676.68"/>
<polygon fill="black" stroke="black" stroke-width="1.5" points="3554.5,-1676.68 3551,-1666.68 3547.5,-1676.68 3554.5,-1676.68"/>
</g>
<!-- EOSKeyError -->
<g id="node22" class="node">
<title>EOSKeyError</title>
<path fill="none" stroke="black" d="M5346,-1666.46C5346,-1666.46 5212,-1666.46 5212,-1666.46 5206,-1666.46 5200,-1660.46 5200,-1654.46 5200,-1654.46 5200,-1635.46 5200,-1635.46 5200,-1629.46 5206,-1623.46 5212,-1623.46 5212,-1623.46 5346,-1623.46 5346,-1623.46 5352,-1623.46 5358,-1629.46 5358,-1635.46 5358,-1635.46 5358,-1654.46 5358,-1654.46 5358,-1660.46 5352,-1666.46 5346,-1666.46"/>
<text text-anchor="middle" x="5279" y="-1642.46" font-family="Arial" font-size="10.00">EOSKeyError</text>
</g>
<!-- CryptnoxException&#45;&gt;EOSKeyError -->
<g id="edge21" class="edge">
<title>CryptnoxException&#45;&gt;EOSKeyError</title>
<path fill="none" stroke="black" stroke-width="1.5" d="M2766.34,-6729.96C3201.52,-6729.96 5279,-6729.96 5279,-6729.96 5279,-6729.96 5279,-1676.52 5279,-1676.52"/>
<polygon fill="black" stroke="black" stroke-width="1.5" points="5282.5,-1676.52 5279,-1666.52 5275.5,-1676.52 5282.5,-1676.52"/>
</g>
<!-- ReadPublicKeyException -->
<g id="node23" class="node">
<title>ReadPublicKeyException</title>
<path fill="none" stroke="black" d="M5130,-1666.46C5130,-1666.46 4996,-1666.46 4996,-1666.46 4990,-1666.46 4984,-1660.46 4984,-1654.46 4984,-1654.46 4984,-1635.46 4984,-1635.46 4984,-1629.46 4990,-1623.46 4996,-1623.46 4996,-1623.46 5130,-1623.46 5130,-1623.46 5136,-1623.46 5142,-1629.46 5142,-1635.46 5142,-1635.46 5142,-1654.46 5142,-1654.46 5142,-1660.46 5136,-1666.46 5130,-1666.46"/>
<text text-anchor="middle" x="5063" y="-1642.46" font-family="Arial" font-size="10.00">ReadPublicKeyException</text>
</g>
<!-- CryptnoxException&#45;&gt;ReadPublicKeyException -->
<g id="edge22" class="edge">
<title>CryptnoxException&#45;&gt;ReadPublicKeyException</title>
<path fill="none" stroke="black" stroke-width="1.5" d="M2766.05,-6726.96C3178.33,-6726.96 5063,-6726.96 5063,-6726.96 5063,-6726.96 5063,-1676.51 5063,-1676.51"/>
<polygon fill="black" stroke="black" stroke-width="1.5" points="5066.5,-1676.51 5063,-1666.51 5059.5,-1676.51 5066.5,-1676.51"/>
</g>
<!-- ReaderException -->
<g id="node24" class="node">
<title>ReaderException</title>
<path fill="none" stroke="black" d="M4914,-1666.46C4914,-1666.46 4780,-1666.46 4780,-1666.46 4774,-1666.46 4768,-1660.46 4768,-1654.46 4768,-1654.46 4768,-1635.46 4768,-1635.46 4768,-1629.46 4774,-1623.46 4780,-1623.46 4780,-1623.46 4914,-1623.46 4914,-1623.46 4920,-1623.46 4926,-1629.46 4926,-1635.46 4926,-1635.46 4926,-1654.46 4926,-1654.46 4926,-1660.46 4920,-1666.46 4914,-1666.46"/>
<text text-anchor="middle" x="4847" y="-1642.46" font-family="Arial" font-size="10.00">ReaderException</text>
</g>
<!-- CryptnoxException&#45;&gt;ReaderException -->
<g id="edge23" class="edge">
<title>CryptnoxException&#45;&gt;ReaderException</title>
<path fill="none" stroke="black" stroke-width="1.5" d="M2766.11,-6722.96C3155.2,-6722.96 4847,-6722.96 4847,-6722.96 4847,-6722.96 4847,-1676.49 4847,-1676.49"/>
<polygon fill="black" stroke="black" stroke-width="1.5" points="4850.5,-1676.49 4847,-1666.49 4843.5,-1676.49 4850.5,-1676.49"/>
</g>
<!-- SeedException -->
<g id="node25" class="node">
<title>SeedException</title>
<path fill="none" stroke="black" d="M4698,-1666.46C4698,-1666.46 4564,-1666.46 4564,-1666.46 4558,-1666.46 4552,-1660.46 4552,-1654.46 4552,-1654.46 4552,-1635.46 4552,-1635.46 4552,-1629.46 4558,-1623.46 4564,-1623.46 4564,-1623.46 4698,-1623.46 4698,-1623.46 4704,-1623.46 4710,-1629.46 4710,-1635.46 4710,-1635.46 4710,-1654.46 4710,-1654.46 4710,-1660.46 4704,-1666.46 4698,-1666.46"/>
<text text-anchor="middle" x="4631" y="-1642.46" font-family="Arial" font-size="10.00">SeedException</text>
</g>
<!-- CryptnoxException&#45;&gt;SeedException -->
<g id="edge24" class="edge">
<title>CryptnoxException&#45;&gt;SeedException</title>
<path fill="none" stroke="black" stroke-width="1.5" d="M2766.22,-6719.96C3130.97,-6719.96 4631,-6719.96 4631,-6719.96 4631,-6719.96 4631,-1676.48 4631,-1676.48"/>
<polygon fill="black" stroke="black" stroke-width="1.5" points="4634.5,-1676.48 4631,-1666.48 4627.5,-1676.48 4634.5,-1676.48"/>
</g>
<!-- SoftLock -->
<g id="node26" class="node">
<title>SoftLock</title>
<path fill="none" stroke="black" d="M4482,-1666.46C4482,-1666.46 4348,-1666.46 4348,-1666.46 4342,-1666.46 4336,-1660.46 4336,-1654.46 4336,-1654.46 4336,-1635.46 4336,-1635.46 4336,-1629.46 4342,-1623.46 4348,-1623.46 4348,-1623.46 4482,-1623.46 4482,-1623.46 4488,-1623.46 4494,-1629.46 4494,-1635.46 4494,-1635.46 4494,-1654.46 4494,-1654.46 4494,-1660.46 4488,-1666.46 4482,-1666.46"/>
<text text-anchor="middle" x="4415" y="-1642.46" font-family="Arial" font-size="10.00">SoftLock</text>
</g>
<!-- CryptnoxException&#45;&gt;SoftLock -->
<g id="edge25" class="edge">
<title>CryptnoxException&#45;&gt;SoftLock</title>
<path fill="none" stroke="black" stroke-width="1.5" d="M2766.02,-6716.96C3104.52,-6716.96 4415,-6716.96 4415,-6716.96 4415,-6716.96 4415,-1676.47 4415,-1676.47"/>
<polygon fill="black" stroke="black" stroke-width="1.5" points="4418.5,-1676.47 4415,-1666.47 4411.5,-1676.47 4418.5,-1676.47"/>
</g>
</g>
</svg>
