<?xml version="1.0" encoding="UTF-8" standalone="no"?>
<!DOCTYPE svg PUBLIC "-//W3C//DTD SVG 1.1//EN"
 "http://www.w3.org/Graphics/SVG/1.1/DTD/svg11.dtd">
<!-- Generated by graphviz version 2.43.0 (0)
 -->
<!-- Title: exceptions Pages: 1 -->
<svg width="165pt" height="720pt"
 viewBox="0.00 0.00 164.96 720.00" xmlns="http://www.w3.org/2000/svg" xmlns:xlink="http://www.w3.org/1999/xlink">
<g id="graph0" class="graph" transform="scale(0.54 0.54) rotate(0) translate(4 1336)">
<title>exceptions</title>
<!-- CryptnoxException -->
<g id="node1" class="node">
<title>CryptnoxException</title>
<path fill="lightcoral" stroke="black" d="M106,-684C106,-684 12,-684 12,-684 6,-684 0,-678 0,-672 0,-672 0,-660 0,-660 0,-654 6,-648 12,-648 12,-648 106,-648 106,-648 112,-648 118,-654 118,-660 118,-660 118,-672 118,-672 118,-678 112,-684 106,-684"/>
<text text-anchor="middle" x="59" y="-662.9" font-family="Arial" font-size="12.00">CryptnoxException</text>
</g>
<!-- CardException -->
<g id="node2" class="node">
<title>CardException</title>
<path fill="lightblue" stroke="black" d="M255,-1332C255,-1332 198,-1332 198,-1332 192,-1332 186,-1326 186,-1320 186,-1320 186,-1308 186,-1308 186,-1302 192,-1296 198,-1296 198,-1296 255,-1296 255,-1296 261,-1296 267,-1302 267,-1308 267,-1308 267,-1320 267,-1320 267,-1326 261,-1332 255,-1332"/>
<text text-anchor="middle" x="226.5" y="-1311.5" font-family="Arial" font-size="10.00">CardException</text>
</g>
<!-- CryptnoxException&#45;&gt;CardException -->
<g id="edge1" class="edge">
<title>CryptnoxException&#45;&gt;CardException</title>
<path fill="none" stroke="black" d="M60.34,-684.09C62.43,-776.01 76.1,-1190.66 154,-1287 160.19,-1294.66 168.8,-1300.14 177.91,-1304.08"/>
<polygon fill="black" stroke="black" points="177.16,-1306.79 185.64,-1307.03 179.16,-1301.56 177.16,-1306.79"/>
</g>
<!-- CardNotBlocked -->
<g id="node3" class="node">
<title>CardNotBlocked</title>
<path fill="lightblue" stroke="black" d="M259,-1278C259,-1278 194,-1278 194,-1278 188,-1278 182,-1272 182,-1266 182,-1266 182,-1254 182,-1254 182,-1248 188,-1242 194,-1242 194,-1242 259,-1242 259,-1242 265,-1242 271,-1248 271,-1254 271,-1254 271,-1266 271,-1266 271,-1272 265,-1278 259,-1278"/>
<text text-anchor="middle" x="226.5" y="-1257.5" font-family="Arial" font-size="10.00">CardNotBlocked</text>
</g>
<!-- CryptnoxException&#45;&gt;CardNotBlocked -->
<g id="edge2" class="edge">
<title>CryptnoxException&#45;&gt;CardNotBlocked</title>
<path fill="none" stroke="black" d="M60.64,-684.23C64.02,-771.5 82.57,-1145.92 154,-1233 159.36,-1239.54 166.49,-1244.5 174.17,-1248.25"/>
<polygon fill="black" stroke="black" points="173.53,-1251.03 181.99,-1251.63 175.75,-1245.89 173.53,-1251.03"/>
</g>
<!-- CardTypeException -->
<g id="node4" class="node">
<title>CardTypeException</title>
<path fill="lightblue" stroke="black" d="M265.5,-1224C265.5,-1224 187.5,-1224 187.5,-1224 181.5,-1224 175.5,-1218 175.5,-1212 175.5,-1212 175.5,-1200 175.5,-1200 175.5,-1194 181.5,-1188 187.5,-1188 187.5,-1188 265.5,-1188 265.5,-1188 271.5,-1188 277.5,-1194 277.5,-1200 277.5,-1200 277.5,-1212 277.5,-1212 277.5,-1218 271.5,-1224 265.5,-1224"/>
<text text-anchor="middle" x="226.5" y="-1203.5" font-family="Arial" font-size="10.00">CardTypeException</text>
</g>
<!-- CryptnoxException&#45;&gt;CardTypeException -->
<g id="edge3" class="edge">
<title>CryptnoxException&#45;&gt;CardTypeException</title>
<path fill="none" stroke="black" d="M60.98,-684.12C65.73,-766.02 88.95,-1101.06 154,-1179 158.01,-1183.8 162.96,-1187.75 168.37,-1190.99"/>
<polygon fill="black" stroke="black" points="167.06,-1193.47 175.44,-1194.74 169.69,-1188.52 167.06,-1193.47"/>
</g>
<!-- CertificateException -->
<g id="node5" class="node">
<title>CertificateException</title>
<path fill="lightblue" stroke="black" d="M267,-1170C267,-1170 186,-1170 186,-1170 180,-1170 174,-1164 174,-1158 174,-1158 174,-1146 174,-1146 174,-1140 180,-1134 186,-1134 186,-1134 267,-1134 267,-1134 273,-1134 279,-1140 279,-1146 279,-1146 279,-1158 279,-1158 279,-1164 273,-1170 267,-1170"/>
<text text-anchor="middle" x="226.5" y="-1149.5" font-family="Arial" font-size="10.00">CertificateException</text>
</g>
<!-- CryptnoxException&#45;&gt;CertificateException -->
<g id="edge4" class="edge">
<title>CryptnoxException&#45;&gt;CertificateException</title>
<path fill="none" stroke="black" d="M61.41,-684.24C67.69,-760.91 95.36,-1056.21 154,-1125 157.59,-1129.21 161.9,-1132.76 166.6,-1135.76"/>
<polygon fill="black" stroke="black" points="165.4,-1138.29 173.74,-1139.77 168.14,-1133.41 165.4,-1138.29"/>
</g>
<!-- ConnectionException -->
<g id="node6" class="node">
<title>ConnectionException</title>
<path fill="lightblue" stroke="black" d="M269.5,-1116C269.5,-1116 183.5,-1116 183.5,-1116 177.5,-1116 171.5,-1110 171.5,-1104 171.5,-1104 171.5,-1092 171.5,-1092 171.5,-1086 177.5,-1080 183.5,-1080 183.5,-1080 269.5,-1080 269.5,-1080 275.5,-1080 281.5,-1086 281.5,-1092 281.5,-1092 281.5,-1104 281.5,-1104 281.5,-1110 275.5,-1116 269.5,-1116"/>
<text text-anchor="middle" x="226.5" y="-1095.5" font-family="Arial" font-size="10.00">ConnectionException</text>
</g>
<!-- CryptnoxException&#45;&gt;ConnectionException -->
<g id="edge5" class="edge">
<title>CryptnoxException&#45;&gt;ConnectionException</title>
<path fill="none" stroke="black" d="M61.95,-684.23C69.87,-755.09 101.71,-1011.25 154,-1071 157,-1074.43 160.49,-1077.43 164.28,-1080.05"/>
<polygon fill="black" stroke="black" points="163.08,-1082.6 171.37,-1084.36 165.99,-1077.81 163.08,-1082.6"/>
</g>
<!-- DataException -->
<g id="node7" class="node">
<title>DataException</title>
<path fill="lightblue" stroke="black" d="M255,-1062C255,-1062 198,-1062 198,-1062 192,-1062 186,-1056 186,-1050 186,-1050 186,-1038 186,-1038 186,-1032 192,-1026 198,-1026 198,-1026 255,-1026 255,-1026 261,-1026 267,-1032 267,-1038 267,-1038 267,-1050 267,-1050 267,-1056 261,-1062 255,-1062"/>
<text text-anchor="middle" x="226.5" y="-1041.5" font-family="Arial" font-size="10.00">DataException</text>
</g>
<!-- CryptnoxException&#45;&gt;DataException -->
<g id="edge6" class="edge">
<title>CryptnoxException&#45;&gt;DataException</title>
<path fill="none" stroke="black" d="M59.43,-684.35C58.66,-741.38 64.03,-917.62 154,-1017 160.54,-1024.22 169.21,-1029.53 178.25,-1033.41"/>
<polygon fill="black" stroke="black" points="177.42,-1036.09 185.9,-1036.36 179.44,-1030.87 177.42,-1036.09"/>
</g>
<!-- DataValidationException -->
<g id="node8" class="node">
<title>DataValidationException</title>
<path fill="lightblue" stroke="black" d="M276,-1008C276,-1008 177,-1008 177,-1008 171,-1008 165,-1002 165,-996 165,-996 165,-984 165,-984 165,-978 171,-972 177,-972 177,-972 276,-972 276,-972 282,-972 288,-978 288,-984 288,-984 288,-996 288,-996 288,-1002 282,-1008 276,-1008"/>
<text text-anchor="middle" x="226.5" y="-987.5" font-family="Arial" font-size="10.00">DataValidationException</text>
</g>
<!-- CryptnoxException&#45;&gt;DataValidationException -->
<g id="edge7" class="edge">
<title>CryptnoxException&#45;&gt;DataValidationException</title>
<path fill="none" stroke="black" d="M60.48,-684.06C62.81,-734.91 76.28,-880.92 154,-963 155.3,-964.37 156.67,-965.67 158.11,-966.91"/>
<polygon fill="black" stroke="black" points="156.7,-969.35 164.78,-971.92 160.06,-964.87 156.7,-969.35"/>
</g>
<!-- DerivationSelectionException -->
<g id="node9" class="node">
<title>DerivationSelectionException</title>
<path fill="lightblue" stroke="black" d="M287,-954C287,-954 166,-954 166,-954 160,-954 154,-948 154,-942 154,-942 154,-930 154,-930 154,-924 160,-918 166,-918 166,-918 287,-918 287,-918 293,-918 299,-924 299,-930 299,-930 299,-942 299,-942 299,-948 293,-954 287,-954"/>
<text text-anchor="middle" x="226.5" y="-933.5" font-family="Arial" font-size="10.00">DerivationSelectionException</text>
</g>
<!-- CryptnoxException&#45;&gt;DerivationSelectionException -->
<g id="edge8" class="edge">
<title>CryptnoxException&#45;&gt;DerivationSelectionException</title>
<path fill="none" stroke="black" d="M61.99,-684.29C67.8,-728.86 88.65,-844.17 154,-909 155.48,-910.47 157.06,-911.86 158.7,-913.18"/>
<polygon fill="black" stroke="black" points="157.21,-915.56 165.36,-917.91 160.45,-910.99 157.21,-915.56"/>
</g>
<!-- EOSKeyError -->
<g id="node10" class="node">
<title>EOSKeyError</title>
<path fill="lightblue" stroke="black" d="M252.5,-900C252.5,-900 200.5,-900 200.5,-900 194.5,-900 188.5,-894 188.5,-888 188.5,-888 188.5,-876 188.5,-876 188.5,-870 194.5,-864 200.5,-864 200.5,-864 252.5,-864 252.5,-864 258.5,-864 264.5,-870 264.5,-876 264.5,-876 264.5,-888 264.5,-888 264.5,-894 258.5,-900 252.5,-900"/>
<text text-anchor="middle" x="226.5" y="-879.5" font-family="Arial" font-size="10.00">EOSKeyError</text>
</g>
<!-- CryptnoxException&#45;&gt;EOSKeyError -->
<g id="edge9" class="edge">
<title>CryptnoxException&#45;&gt;EOSKeyError</title>
<path fill="none" stroke="black" d="M64.22,-684.06C73.79,-721.19 100.59,-806.7 154,-855 161.61,-861.88 171.15,-867.07 180.75,-870.96"/>
<polygon fill="black" stroke="black" points="179.96,-873.65 188.43,-873.81 181.91,-868.4 179.96,-873.65"/>
</g>
<!-- FirmwareException -->
<g id="node11" class="node">
<title>FirmwareException</title>
<path fill="lightblue" stroke="black" d="M265,-846C265,-846 188,-846 188,-846 182,-846 176,-840 176,-834 176,-834 176,-822 176,-822 176,-816 182,-810 188,-810 188,-810 265,-810 265,-810 271,-810 277,-816 277,-822 277,-822 277,-834 277,-834 277,-840 271,-846 265,-846"/>
<text text-anchor="middle" x="226.5" y="-825.5" font-family="Arial" font-size="10.00">FirmwareException</text>
</g>
<!-- CryptnoxException&#45;&gt;FirmwareException -->
<g id="edge10" class="edge">
<title>CryptnoxException&#45;&gt;FirmwareException</title>
<path fill="none" stroke="black" d="M68.29,-684.37C82.12,-713.09 112.54,-768.71 154,-801 158.36,-804.4 163.19,-807.4 168.23,-810.06"/>
<polygon fill="black" stroke="black" points="167.31,-812.72 175.73,-813.69 169.76,-807.68 167.31,-812.72"/>
</g>
<!-- GenericException -->
<g id="node12" class="node">
<title>GenericException</title>
<path fill="lightblue" stroke="black" d="M261.5,-792C261.5,-792 191.5,-792 191.5,-792 185.5,-792 179.5,-786 179.5,-780 179.5,-780 179.5,-768 179.5,-768 179.5,-762 185.5,-756 191.5,-756 191.5,-756 261.5,-756 261.5,-756 267.5,-756 273.5,-762 273.5,-768 273.5,-768 273.5,-780 273.5,-780 273.5,-786 267.5,-792 261.5,-792"/>
<text text-anchor="middle" x="226.5" y="-771.5" font-family="Arial" font-size="10.00">GenericException</text>
</g>
<!-- CryptnoxException&#45;&gt;GenericException -->
<g id="edge11" class="edge">
<title>CryptnoxException&#45;&gt;GenericException</title>
<path fill="none" stroke="black" d="M77.24,-684.2C95.06,-702.15 124.37,-729.39 154,-747 159.53,-750.29 165.54,-753.3 171.64,-756.02"/>
<polygon fill="black" stroke="black" points="170.92,-758.76 179.38,-759.31 173.11,-753.61 170.92,-758.76"/>
</g>
<!-- GenuineCheckException -->
<g id="node13" class="node">
<title>GenuineCheckException</title>
<path fill="lightblue" stroke="black" d="M277,-738C277,-738 176,-738 176,-738 170,-738 164,-732 164,-726 164,-726 164,-714 164,-714 164,-708 170,-702 176,-702 176,-702 277,-702 277,-702 283,-702 289,-708 289,-714 289,-714 289,-726 289,-726 289,-732 283,-738 277,-738"/>
<text text-anchor="middle" x="226.5" y="-717.5" font-family="Arial" font-size="10.00">GenuineCheckException</text>
</g>
<!-- CryptnoxException&#45;&gt;GenuineCheckException -->
<g id="edge12" class="edge">
<title>CryptnoxException&#45;&gt;GenuineCheckException</title>
<path fill="none" stroke="black" d="M115.57,-684.13C130.52,-689.01 146.81,-694.32 162.15,-699.33"/>
<polygon fill="black" stroke="black" points="161.6,-702.1 170.08,-701.92 163.34,-696.77 161.6,-702.1"/>
</g>
<!-- InitializationException -->
<g id="node14" class="node">
<title>InitializationException</title>
<path fill="lightblue" stroke="black" d="M270.5,-684C270.5,-684 182.5,-684 182.5,-684 176.5,-684 170.5,-678 170.5,-672 170.5,-672 170.5,-660 170.5,-660 170.5,-654 176.5,-648 182.5,-648 182.5,-648 270.5,-648 270.5,-648 276.5,-648 282.5,-654 282.5,-660 282.5,-660 282.5,-672 282.5,-672 282.5,-678 276.5,-684 270.5,-684"/>
<text text-anchor="middle" x="226.5" y="-663.5" font-family="Arial" font-size="10.00">InitializationException</text>
</g>
<!-- CryptnoxException&#45;&gt;InitializationException -->
<g id="edge13" class="edge">
<title>CryptnoxException&#45;&gt;InitializationException</title>
<path fill="none" stroke="black" d="M118.35,-666C132.51,-666 147.71,-666 162.09,-666"/>
<polygon fill="black" stroke="black" points="162.45,-668.8 170.45,-666 162.45,-663.2 162.45,-668.8"/>
</g>
<!-- KeyAlreadyGenerated -->
<g id="node15" class="node">
<title>KeyAlreadyGenerated</title>
<path fill="lightblue" stroke="black" d="M270.5,-630C270.5,-630 182.5,-630 182.5,-630 176.5,-630 170.5,-624 170.5,-618 170.5,-618 170.5,-606 170.5,-606 170.5,-600 176.5,-594 182.5,-594 182.5,-594 270.5,-594 270.5,-594 276.5,-594 282.5,-600 282.5,-606 282.5,-606 282.5,-618 282.5,-618 282.5,-624 276.5,-630 270.5,-630"/>
<text text-anchor="middle" x="226.5" y="-609.5" font-family="Arial" font-size="10.00">KeyAlreadyGenerated</text>
</g>
<!-- CryptnoxException&#45;&gt;KeyAlreadyGenerated -->
<g id="edge14" class="edge">
<title>CryptnoxException&#45;&gt;KeyAlreadyGenerated</title>
<path fill="none" stroke="black" d="M115.57,-647.87C130.6,-642.96 146.98,-637.62 162.4,-632.59"/>
<polygon fill="black" stroke="black" points="163.62,-635.14 170.36,-629.99 161.88,-629.81 163.62,-635.14"/>
</g>
<!-- KeyGenerationException -->
<g id="node16" class="node">
<title>KeyGenerationException</title>
<path fill="lightblue" stroke="black" d="M277,-576C277,-576 176,-576 176,-576 170,-576 164,-570 164,-564 164,-564 164,-552 164,-552 164,-546 170,-540 176,-540 176,-540 277,-540 277,-540 283,-540 289,-546 289,-552 289,-552 289,-564 289,-564 289,-570 283,-576 277,-576"/>
<text text-anchor="middle" x="226.5" y="-555.5" font-family="Arial" font-size="10.00">KeyGenerationException</text>
</g>
<!-- CryptnoxException&#45;&gt;KeyGenerationException -->
<g id="edge15" class="edge">
<title>CryptnoxException&#45;&gt;KeyGenerationException</title>
<path fill="none" stroke="black" d="M77.24,-647.8C95.06,-629.85 124.37,-602.61 154,-585 157.25,-583.07 160.66,-581.23 164.16,-579.49"/>
<polygon fill="black" stroke="black" points="165.4,-582.01 171.44,-576.06 163.01,-576.94 165.4,-582.01"/>
</g>
<!-- KeySelectionException -->
<g id="node17" class="node">
<title>KeySelectionException</title>
<path fill="lightblue" stroke="black" d="M273.5,-522C273.5,-522 179.5,-522 179.5,-522 173.5,-522 167.5,-516 167.5,-510 167.5,-510 167.5,-498 167.5,-498 167.5,-492 173.5,-486 179.5,-486 179.5,-486 273.5,-486 273.5,-486 279.5,-486 285.5,-492 285.5,-498 285.5,-498 285.5,-510 285.5,-510 285.5,-516 279.5,-522 273.5,-522"/>
<text text-anchor="middle" x="226.5" y="-501.5" font-family="Arial" font-size="10.00">KeySelectionException</text>
</g>
<!-- CryptnoxException&#45;&gt;KeySelectionException -->
<g id="edge16" class="edge">
<title>CryptnoxException&#45;&gt;KeySelectionException</title>
<path fill="none" stroke="black" d="M68.29,-647.63C82.12,-618.91 112.54,-563.29 154,-531 156.15,-529.33 158.41,-527.75 160.75,-526.26"/>
<polygon fill="black" stroke="black" points="162.47,-528.5 168,-522.07 159.67,-523.65 162.47,-528.5"/>
</g>
<!-- PinAuthenticationException -->
<g id="node18" class="node">
<title>PinAuthenticationException</title>
<path fill="lightblue" stroke="black" d="M283,-468C283,-468 170,-468 170,-468 164,-468 158,-462 158,-456 158,-456 158,-444 158,-444 158,-438 164,-432 170,-432 170,-432 283,-432 283,-432 289,-432 295,-438 295,-444 295,-444 295,-456 295,-456 295,-462 289,-468 283,-468"/>
<text text-anchor="middle" x="226.5" y="-447.5" font-family="Arial" font-size="10.00">PinAuthenticationException</text>
</g>
<!-- CryptnoxException&#45;&gt;PinAuthenticationException -->
<g id="edge17" class="edge">
<title>CryptnoxException&#45;&gt;PinAuthenticationException</title>
<path fill="none" stroke="black" d="M64.22,-647.94C73.79,-610.81 100.59,-525.3 154,-477 155.75,-475.41 157.61,-473.92 159.54,-472.51"/>
<polygon fill="black" stroke="black" points="161.23,-474.75 166.39,-468.03 158.17,-470.06 161.23,-474.75"/>
</g>
<!-- PinException -->
<g id="node19" class="node">
<title>PinException</title>
<path fill="lightblue" stroke="black" d="M251.5,-414C251.5,-414 201.5,-414 201.5,-414 195.5,-414 189.5,-408 189.5,-402 189.5,-402 189.5,-390 189.5,-390 189.5,-384 195.5,-378 201.5,-378 201.5,-378 251.5,-378 251.5,-378 257.5,-378 263.5,-384 263.5,-390 263.5,-390 263.5,-402 263.5,-402 263.5,-408 257.5,-414 251.5,-414"/>
<text text-anchor="middle" x="226.5" y="-393.5" font-family="Arial" font-size="10.00">PinException</text>
</g>
<!-- CryptnoxException&#45;&gt;PinException -->
<g id="edge18" class="edge">
<title>CryptnoxException&#45;&gt;PinException</title>
<path fill="none" stroke="black" d="M61.99,-647.71C67.8,-603.14 88.65,-487.83 154,-423 161.66,-415.4 171.66,-409.91 181.75,-405.95"/>
<polygon fill="black" stroke="black" points="182.84,-408.53 189.44,-403.21 180.96,-403.26 182.84,-408.53"/>
</g>
<!-- PukException -->
<g id="node20" class="node">
<title>PukException</title>
<path fill="lightblue" stroke="black" d="M253,-360C253,-360 200,-360 200,-360 194,-360 188,-354 188,-348 188,-348 188,-336 188,-336 188,-330 194,-324 200,-324 200,-324 253,-324 253,-324 259,-324 265,-330 265,-336 265,-336 265,-348 265,-348 265,-354 259,-360 253,-360"/>
<text text-anchor="middle" x="226.5" y="-339.5" font-family="Arial" font-size="10.00">PukException</text>
</g>
<!-- CryptnoxException&#45;&gt;PukException -->
<g id="edge19" class="edge">
<title>CryptnoxException&#45;&gt;PukException</title>
<path fill="none" stroke="black" d="M60.48,-647.94C62.81,-597.09 76.28,-451.08 154,-369 161.13,-361.47 170.56,-356.03 180.23,-352.09"/>
<polygon fill="black" stroke="black" points="181.45,-354.63 188,-349.25 179.52,-349.37 181.45,-354.63"/>
</g>
<!-- ReadPublicKeyException -->
<g id="node21" class="node">
<title>ReadPublicKeyException</title>
<path fill="lightblue" stroke="black" d="M278.5,-306C278.5,-306 174.5,-306 174.5,-306 168.5,-306 162.5,-300 162.5,-294 162.5,-294 162.5,-282 162.5,-282 162.5,-276 168.5,-270 174.5,-270 174.5,-270 278.5,-270 278.5,-270 284.5,-270 290.5,-276 290.5,-282 290.5,-282 290.5,-294 290.5,-294 290.5,-300 284.5,-306 278.5,-306"/>
<text text-anchor="middle" x="226.5" y="-285.5" font-family="Arial" font-size="10.00">ReadPublicKeyException</text>
</g>
<!-- CryptnoxException&#45;&gt;ReadPublicKeyException -->
<g id="edge20" class="edge">
<title>CryptnoxException&#45;&gt;ReadPublicKeyException</title>
<path fill="none" stroke="black" d="M59.43,-647.65C58.66,-590.62 64.03,-414.38 154,-315 155.23,-313.64 156.54,-312.35 157.9,-311.12"/>
<polygon fill="black" stroke="black" points="159.69,-313.28 164.28,-306.15 156.25,-308.86 159.69,-313.28"/>
</g>
<!-- ReaderException -->
<g id="node22" class="node">
<title>ReaderException</title>
<path fill="lightblue" stroke="black" d="M260.5,-252C260.5,-252 192.5,-252 192.5,-252 186.5,-252 180.5,-246 180.5,-240 180.5,-240 180.5,-228 180.5,-228 180.5,-222 186.5,-216 192.5,-216 192.5,-216 260.5,-216 260.5,-216 266.5,-216 272.5,-222 272.5,-228 272.5,-228 272.5,-240 272.5,-240 272.5,-246 266.5,-252 260.5,-252"/>
<text text-anchor="middle" x="226.5" y="-231.5" font-family="Arial" font-size="10.00">ReaderException</text>
</g>
<!-- CryptnoxException&#45;&gt;ReaderException -->
<g id="edge21" class="edge">
<title>CryptnoxException&#45;&gt;ReaderException</title>
<path fill="none" stroke="black" d="M61.95,-647.77C69.87,-576.91 101.71,-320.75 154,-261 159.24,-255.01 165.96,-250.34 173.16,-246.71"/>
<polygon fill="black" stroke="black" points="174.35,-249.25 180.5,-243.41 172.05,-244.14 174.35,-249.25"/>
</g>
<!-- SecureChannelException -->
<g id="node23" class="node">
<title>SecureChannelException</title>
<path fill="lightblue" stroke="black" d="M278,-198C278,-198 175,-198 175,-198 169,-198 163,-192 163,-186 163,-186 163,-174 163,-174 163,-168 169,-162 175,-162 175,-162 278,-162 278,-162 284,-162 290,-168 290,-174 290,-174 290,-186 290,-186 290,-192 284,-198 278,-198"/>
<text text-anchor="middle" x="226.5" y="-177.5" font-family="Arial" font-size="10.00">SecureChannelException</text>
</g>
<!-- CryptnoxException&#45;&gt;SecureChannelException -->
<g id="edge22" class="edge">
<title>CryptnoxException&#45;&gt;SecureChannelException</title>
<path fill="none" stroke="black" d="M61.41,-647.76C67.69,-571.09 95.36,-275.79 154,-207 155.07,-205.75 156.19,-204.56 157.38,-203.42"/>
<polygon fill="black" stroke="black" points="159.34,-205.44 163.72,-198.18 155.77,-201.12 159.34,-205.44"/>
</g>
<!-- SeedException -->
<g id="node24" class="node">
<title>SeedException</title>
<path fill="lightblue" stroke="black" d="M256,-144C256,-144 197,-144 197,-144 191,-144 185,-138 185,-132 185,-132 185,-120 185,-120 185,-114 191,-108 197,-108 197,-108 256,-108 256,-108 262,-108 268,-114 268,-120 268,-120 268,-132 268,-132 268,-138 262,-144 256,-144"/>
<text text-anchor="middle" x="226.5" y="-123.5" font-family="Arial" font-size="10.00">SeedException</text>
</g>
<!-- CryptnoxException&#45;&gt;SeedException -->
<g id="edge23" class="edge">
<title>CryptnoxException&#45;&gt;SeedException</title>
<path fill="none" stroke="black" d="M60.98,-647.88C65.73,-565.98 88.95,-230.94 154,-153 160.11,-145.68 168.43,-140.34 177.23,-136.45"/>
<polygon fill="black" stroke="black" points="178.28,-139.04 184.7,-133.51 176.23,-133.83 178.28,-139.04"/>
</g>
<!-- SoftLock -->
<g id="node25" class="node">
<title>SoftLock</title>
<path fill="lightblue" stroke="black" d="M242.5,-90C242.5,-90 210.5,-90 210.5,-90 204.5,-90 198.5,-84 198.5,-78 198.5,-78 198.5,-66 198.5,-66 198.5,-60 204.5,-54 210.5,-54 210.5,-54 242.5,-54 242.5,-54 248.5,-54 254.5,-60 254.5,-66 254.5,-66 254.5,-78 254.5,-78 254.5,-84 248.5,-90 242.5,-90"/>
<text text-anchor="middle" x="226.5" y="-69.5" font-family="Arial" font-size="10.00">SoftLock</text>
</g>
<!-- CryptnoxException&#45;&gt;SoftLock -->
<g id="edge24" class="edge">
<title>CryptnoxException&#45;&gt;SoftLock</title>
<path fill="none" stroke="black" d="M60.64,-647.77C64.02,-560.5 82.57,-186.08 154,-99 162.99,-88.04 176.93,-81.53 190.12,-77.66"/>
<polygon fill="black" stroke="black" points="191.14,-80.28 198.18,-75.57 189.74,-74.86 191.14,-80.28"/>
</g>
<!-- CardClosedException -->
<g id="node26" class="node">
<title>CardClosedException</title>
<path fill="lightblue" stroke="black" d="M270.5,-36C270.5,-36 182.5,-36 182.5,-36 176.5,-36 170.5,-30 170.5,-24 170.5,-24 170.5,-12 170.5,-12 170.5,-6 176.5,0 182.5,0 182.5,0 270.5,0 270.5,0 276.5,0 282.5,-6 282.5,-12 282.5,-12 282.5,-24 282.5,-24 282.5,-30 276.5,-36 270.5,-36"/>
<text text-anchor="middle" x="226.5" y="-15.5" font-family="Arial" font-size="10.00">CardClosedException</text>
</g>
<!-- CryptnoxException&#45;&gt;CardClosedException -->
<g id="edge25" class="edge">
<title>CryptnoxException&#45;&gt;CardClosedException</title>
<path fill="none" stroke="black" d="M60.34,-647.91C62.43,-555.99 76.1,-141.34 154,-45 156.69,-41.67 159.85,-38.75 163.3,-36.19"/>
<polygon fill="black" stroke="black" points="165.06,-38.38 170.27,-31.69 162.03,-33.68 165.06,-38.38"/>
</g>
</g>
</svg>
