<?xml version="1.0" encoding="UTF-8" standalone="no"?>
<!DOCTYPE svg PUBLIC "-//W3C//DTD SVG 1.1//EN"
 "http://www.w3.org/Graphics/SVG/1.1/DTD/svg11.dtd">
<!-- Generated by graphviz version 2.43.0 (0)
 -->
<!-- Title: exceptions Pages: 1 -->
<svg width="4010pt" height="139pt"
 viewBox="0.00 0.00 4010.00 139.00" xmlns="http://www.w3.org/2000/svg" xmlns:xlink="http://www.w3.org/1999/xlink">
<g id="graph0" class="graph" transform="scale(1 1) rotate(0) translate(4 135)">
<title>exceptions</title>
<g id="clust1" class="cluster">
<title>cluster_row1</title>
</g>
<g id="clust2" class="cluster">
<title>cluster_row2</title>
</g>
<g id="clust3" class="cluster">
<title>cluster_row3</title>
</g>
<g id="clust4" class="cluster">
<title>cluster_row4</title>
</g>
<g id="clust5" class="cluster">
<title>cluster_row5</title>
</g>
<g id="clust6" class="cluster">
<title>cluster_row6</title>
</g>
<!-- CryptnoxException -->
<g id="node1" class="node">
<title>CryptnoxException</title>
<path fill="none" stroke="black" d="M2058,-131C2058,-131 1952,-131 1952,-131 1946,-131 1940,-125 1940,-119 1940,-119 1940,-107 1940,-107 1940,-101 1946,-95 1952,-95 1952,-95 2058,-95 2058,-95 2064,-95 2070,-101 2070,-107 2070,-107 2070,-119 2070,-119 2070,-125 2064,-131 2058,-131"/>
<text text-anchor="middle" x="2005" y="-116.2" font-family="Arial" font-size="11.00">CryptnoxException</text>
<text text-anchor="middle" x="2005" y="-104.2" font-family="Arial" font-size="11.00">(Base)</text>
</g>
<!-- CardException -->
<g id="node2" class="node">
<title>CardException</title>
<path fill="none" stroke="black" d="M611,-52C611,-52 505,-52 505,-52 499,-52 493,-46 493,-40 493,-40 493,-28 493,-28 493,-22 499,-16 505,-16 505,-16 611,-16 611,-16 617,-16 623,-22 623,-28 623,-28 623,-40 623,-40 623,-46 617,-52 611,-52"/>
<text text-anchor="middle" x="558" y="-31.5" font-family="Arial" font-size="10.00">CardException</text>
</g>
<!-- CryptnoxException&#45;&gt;CardException -->
<g id="edge1" class="edge">
<title>CryptnoxException&#45;&gt;CardException</title>
<path fill="none" stroke="black" d="M1939.54,-119C1657.22,-119 558,-119 558,-119 558,-119 558,-59.03 558,-59.03"/>
<polygon fill="black" stroke="black" points="560.45,-59.03 558,-52.03 555.55,-59.03 560.45,-59.03"/>
</g>
<!-- CardClosedException -->
<g id="node3" class="node">
<title>CardClosedException</title>
<path fill="none" stroke="black" d="M452,-52C452,-52 346,-52 346,-52 340,-52 334,-46 334,-40 334,-40 334,-28 334,-28 334,-22 340,-16 346,-16 346,-16 452,-16 452,-16 458,-16 464,-22 464,-28 464,-28 464,-40 464,-40 464,-46 458,-52 452,-52"/>
<text text-anchor="middle" x="399" y="-31.5" font-family="Arial" font-size="10.00">CardClosedException</text>
</g>
<!-- CryptnoxException&#45;&gt;CardClosedException -->
<g id="edge2" class="edge">
<title>CryptnoxException&#45;&gt;CardClosedException</title>
<path fill="none" stroke="black" d="M1939.8,-122C1638.91,-122 399,-122 399,-122 399,-122 399,-59.23 399,-59.23"/>
<polygon fill="black" stroke="black" points="401.45,-59.23 399,-52.23 396.55,-59.23 401.45,-59.23"/>
</g>
<!-- CardNotBlocked -->
<g id="node4" class="node">
<title>CardNotBlocked</title>
<path fill="none" stroke="black" d="M293,-52C293,-52 187,-52 187,-52 181,-52 175,-46 175,-40 175,-40 175,-28 175,-28 175,-22 181,-16 187,-16 187,-16 293,-16 293,-16 299,-16 305,-22 305,-28 305,-28 305,-40 305,-40 305,-46 299,-52 293,-52"/>
<text text-anchor="middle" x="240" y="-31.5" font-family="Arial" font-size="10.00">CardNotBlocked</text>
</g>
<!-- CryptnoxException&#45;&gt;CardNotBlocked -->
<g id="edge3" class="edge">
<title>CryptnoxException&#45;&gt;CardNotBlocked</title>
<path fill="none" stroke="black" d="M1939.83,-125C1620.9,-125 240,-125 240,-125 240,-125 240,-59.42 240,-59.42"/>
<polygon fill="black" stroke="black" points="242.45,-59.42 240,-52.42 237.55,-59.42 242.45,-59.42"/>
</g>
<!-- CardTypeException -->
<g id="node5" class="node">
<title>CardTypeException</title>
<path fill="none" stroke="black" d="M134,-52C134,-52 28,-52 28,-52 22,-52 16,-46 16,-40 16,-40 16,-28 16,-28 16,-22 22,-16 28,-16 28,-16 134,-16 134,-16 140,-16 146,-22 146,-28 146,-28 146,-40 146,-40 146,-46 140,-52 134,-52"/>
<text text-anchor="middle" x="81" y="-31.5" font-family="Arial" font-size="10.00">CardTypeException</text>
</g>
<!-- CryptnoxException&#45;&gt;CardTypeException -->
<g id="edge4" class="edge">
<title>CryptnoxException&#45;&gt;CardTypeException</title>
<path fill="none" stroke="black" d="M1939.88,-128C1603.8,-128 81,-128 81,-128 81,-128 81,-59.12 81,-59.12"/>
<polygon fill="black" stroke="black" points="83.45,-59.12 81,-52.12 78.55,-59.12 83.45,-59.12"/>
</g>
<!-- ConnectionException -->
<g id="node6" class="node">
<title>ConnectionException</title>
<path fill="none" stroke="black" d="M1247,-52C1247,-52 1141,-52 1141,-52 1135,-52 1129,-46 1129,-40 1129,-40 1129,-28 1129,-28 1129,-22 1135,-16 1141,-16 1141,-16 1247,-16 1247,-16 1253,-16 1259,-22 1259,-28 1259,-28 1259,-40 1259,-40 1259,-46 1253,-52 1247,-52"/>
<text text-anchor="middle" x="1194" y="-31.5" font-family="Arial" font-size="10.00">ConnectionException</text>
</g>
<!-- CryptnoxException&#45;&gt;ConnectionException -->
<g id="edge5" class="edge">
<title>CryptnoxException&#45;&gt;ConnectionException</title>
<path fill="none" stroke="black" d="M1939.66,-108C1746.9,-108 1194,-108 1194,-108 1194,-108 1194,-59.29 1194,-59.29"/>
<polygon fill="black" stroke="black" points="1196.45,-59.29 1194,-52.29 1191.55,-59.29 1196.45,-59.29"/>
</g>
<!-- DataException -->
<g id="node7" class="node">
<title>DataException</title>
<path fill="none" stroke="black" d="M1088,-52C1088,-52 982,-52 982,-52 976,-52 970,-46 970,-40 970,-40 970,-28 970,-28 970,-22 976,-16 982,-16 982,-16 1088,-16 1088,-16 1094,-16 1100,-22 1100,-28 1100,-28 1100,-40 1100,-40 1100,-46 1094,-52 1088,-52"/>
<text text-anchor="middle" x="1035" y="-31.5" font-family="Arial" font-size="10.00">DataException</text>
</g>
<!-- CryptnoxException&#45;&gt;DataException -->
<g id="edge6" class="edge">
<title>CryptnoxException&#45;&gt;DataException</title>
<path fill="none" stroke="black" d="M1939.85,-111C1722.36,-111 1035,-111 1035,-111 1035,-111 1035,-59.25 1035,-59.25"/>
<polygon fill="black" stroke="black" points="1037.45,-59.25 1035,-52.25 1032.55,-59.25 1037.45,-59.25"/>
</g>
<!-- DataValidationException -->
<g id="node8" class="node">
<title>DataValidationException</title>
<path fill="none" stroke="black" d="M929,-52C929,-52 823,-52 823,-52 817,-52 811,-46 811,-40 811,-40 811,-28 811,-28 811,-22 817,-16 823,-16 823,-16 929,-16 929,-16 935,-16 941,-22 941,-28 941,-28 941,-40 941,-40 941,-46 935,-52 929,-52"/>
<text text-anchor="middle" x="876" y="-31.5" font-family="Arial" font-size="10.00">DataValidationException</text>
</g>
<!-- CryptnoxException&#45;&gt;DataValidationException -->
<g id="edge7" class="edge">
<title>CryptnoxException&#45;&gt;DataValidationException</title>
<path fill="none" stroke="black" d="M1939.83,-114C1699.41,-114 876,-114 876,-114 876,-114 876,-59.15 876,-59.15"/>
<polygon fill="black" stroke="black" points="878.45,-59.15 876,-52.15 873.55,-59.15 878.45,-59.15"/>
</g>
<!-- CertificateException -->
<g id="node9" class="node">
<title>CertificateException</title>
<path fill="none" stroke="black" d="M770,-52C770,-52 664,-52 664,-52 658,-52 652,-46 652,-40 652,-40 652,-28 652,-28 652,-22 658,-16 664,-16 664,-16 770,-16 770,-16 776,-16 782,-22 782,-28 782,-28 782,-40 782,-40 782,-46 776,-52 770,-52"/>
<text text-anchor="middle" x="717" y="-31.5" font-family="Arial" font-size="10.00">CertificateException</text>
</g>
<!-- CryptnoxException&#45;&gt;CertificateException -->
<g id="edge8" class="edge">
<title>CryptnoxException&#45;&gt;CertificateException</title>
<path fill="none" stroke="black" d="M1939.8,-117C1677.97,-117 717,-117 717,-117 717,-117 717,-59.01 717,-59.01"/>
<polygon fill="black" stroke="black" points="719.45,-59.01 717,-52.01 714.55,-59.01 719.45,-59.01"/>
</g>
<!-- KeyAlreadyGenerated -->
<g id="node10" class="node">
<title>KeyAlreadyGenerated</title>
<path fill="none" stroke="black" d="M1899,-52C1899,-52 1793,-52 1793,-52 1787,-52 1781,-46 1781,-40 1781,-40 1781,-28 1781,-28 1781,-22 1787,-16 1793,-16 1793,-16 1899,-16 1899,-16 1905,-16 1911,-22 1911,-28 1911,-28 1911,-40 1911,-40 1911,-46 1905,-52 1899,-52"/>
<text text-anchor="middle" x="1846" y="-31.5" font-family="Arial" font-size="10.00">KeyAlreadyGenerated</text>
</g>
<!-- CryptnoxException&#45;&gt;KeyAlreadyGenerated -->
<g id="edge9" class="edge">
<title>CryptnoxException&#45;&gt;KeyAlreadyGenerated</title>
<path fill="none" stroke="black" d="M1939.87,-97C1895.96,-97 1846,-97 1846,-97 1846,-97 1846,-59.22 1846,-59.22"/>
<polygon fill="black" stroke="black" points="1848.45,-59.22 1846,-52.22 1843.55,-59.22 1848.45,-59.22"/>
</g>
<!-- KeyGenerationException -->
<g id="node11" class="node">
<title>KeyGenerationException</title>
<path fill="none" stroke="black" d="M1740,-52C1740,-52 1634,-52 1634,-52 1628,-52 1622,-46 1622,-40 1622,-40 1622,-28 1622,-28 1622,-22 1628,-16 1634,-16 1634,-16 1740,-16 1740,-16 1746,-16 1752,-22 1752,-28 1752,-28 1752,-40 1752,-40 1752,-46 1746,-52 1740,-52"/>
<text text-anchor="middle" x="1687" y="-31.5" font-family="Arial" font-size="10.00">KeyGenerationException</text>
</g>
<!-- CryptnoxException&#45;&gt;KeyGenerationException -->
<g id="edge10" class="edge">
<title>CryptnoxException&#45;&gt;KeyGenerationException</title>
<path fill="none" stroke="black" d="M1939.88,-100C1846.85,-100 1687,-100 1687,-100 1687,-100 1687,-59.03 1687,-59.03"/>
<polygon fill="black" stroke="black" points="1689.45,-59.03 1687,-52.03 1684.55,-59.03 1689.45,-59.03"/>
</g>
<!-- KeySelectionException -->
<g id="node12" class="node">
<title>KeySelectionException</title>
<path fill="none" stroke="black" d="M1581,-52C1581,-52 1475,-52 1475,-52 1469,-52 1463,-46 1463,-40 1463,-40 1463,-28 1463,-28 1463,-22 1469,-16 1475,-16 1475,-16 1581,-16 1581,-16 1587,-16 1593,-22 1593,-28 1593,-28 1593,-40 1593,-40 1593,-46 1587,-52 1581,-52"/>
<text text-anchor="middle" x="1528" y="-31.5" font-family="Arial" font-size="10.00">KeySelectionException</text>
</g>
<!-- CryptnoxException&#45;&gt;KeySelectionException -->
<g id="edge11" class="edge">
<title>CryptnoxException&#45;&gt;KeySelectionException</title>
<path fill="none" stroke="black" d="M1939.68,-103C1809.04,-103 1528,-103 1528,-103 1528,-103 1528,-59.13 1528,-59.13"/>
<polygon fill="black" stroke="black" points="1530.45,-59.13 1528,-52.13 1525.55,-59.13 1530.45,-59.13"/>
</g>
<!-- DerivationSelectionException -->
<g id="node13" class="node">
<title>DerivationSelectionException</title>
<path fill="none" stroke="black" d="M1421.5,-52C1421.5,-52 1300.5,-52 1300.5,-52 1294.5,-52 1288.5,-46 1288.5,-40 1288.5,-40 1288.5,-28 1288.5,-28 1288.5,-22 1294.5,-16 1300.5,-16 1300.5,-16 1421.5,-16 1421.5,-16 1427.5,-16 1433.5,-22 1433.5,-28 1433.5,-28 1433.5,-40 1433.5,-40 1433.5,-46 1427.5,-52 1421.5,-52"/>
<text text-anchor="middle" x="1361" y="-31.5" font-family="Arial" font-size="10.00">DerivationSelectionException</text>
</g>
<!-- CryptnoxException&#45;&gt;DerivationSelectionException -->
<g id="edge12" class="edge">
<title>CryptnoxException&#45;&gt;DerivationSelectionException</title>
<path fill="none" stroke="black" d="M1939.71,-106C1775.98,-106 1361,-106 1361,-106 1361,-106 1361,-59.17 1361,-59.17"/>
<polygon fill="black" stroke="black" points="1363.45,-59.17 1361,-52.17 1358.55,-59.17 1363.45,-59.17"/>
</g>
<!-- PinException -->
<g id="node14" class="node">
<title>PinException</title>
<path fill="none" stroke="black" d="M2543,-52C2543,-52 2437,-52 2437,-52 2431,-52 2425,-46 2425,-40 2425,-40 2425,-28 2425,-28 2425,-22 2431,-16 2437,-16 2437,-16 2543,-16 2543,-16 2549,-16 2555,-22 2555,-28 2555,-28 2555,-40 2555,-40 2555,-46 2549,-52 2543,-52"/>
<text text-anchor="middle" x="2490" y="-31.5" font-family="Arial" font-size="10.00">PinException</text>
</g>
<!-- CryptnoxException&#45;&gt;PinException -->
<g id="edge13" class="edge">
<title>CryptnoxException&#45;&gt;PinException</title>
<path fill="none" stroke="black" d="M2070.16,-103C2202.43,-103 2490,-103 2490,-103 2490,-103 2490,-59.13 2490,-59.13"/>
<polygon fill="black" stroke="black" points="2492.45,-59.13 2490,-52.13 2487.55,-59.13 2492.45,-59.13"/>
</g>
<!-- PukException -->
<g id="node15" class="node">
<title>PukException</title>
<path fill="none" stroke="black" d="M2384,-52C2384,-52 2278,-52 2278,-52 2272,-52 2266,-46 2266,-40 2266,-40 2266,-28 2266,-28 2266,-22 2272,-16 2278,-16 2278,-16 2384,-16 2384,-16 2390,-16 2396,-22 2396,-28 2396,-28 2396,-40 2396,-40 2396,-46 2390,-52 2384,-52"/>
<text text-anchor="middle" x="2331" y="-31.5" font-family="Arial" font-size="10.00">PukException</text>
</g>
<!-- CryptnoxException&#45;&gt;PukException -->
<g id="edge14" class="edge">
<title>CryptnoxException&#45;&gt;PukException</title>
<path fill="none" stroke="black" d="M2070.19,-100C2165.32,-100 2331,-100 2331,-100 2331,-100 2331,-59.03 2331,-59.03"/>
<polygon fill="black" stroke="black" points="2333.45,-59.03 2331,-52.03 2328.55,-59.03 2333.45,-59.03"/>
</g>
<!-- PinAuthenticationException -->
<g id="node16" class="node">
<title>PinAuthenticationException</title>
<path fill="none" stroke="black" d="M2224.5,-52C2224.5,-52 2111.5,-52 2111.5,-52 2105.5,-52 2099.5,-46 2099.5,-40 2099.5,-40 2099.5,-28 2099.5,-28 2099.5,-22 2105.5,-16 2111.5,-16 2111.5,-16 2224.5,-16 2224.5,-16 2230.5,-16 2236.5,-22 2236.5,-28 2236.5,-28 2236.5,-40 2236.5,-40 2236.5,-46 2230.5,-52 2224.5,-52"/>
<text text-anchor="middle" x="2168" y="-31.5" font-family="Arial" font-size="10.00">PinAuthenticationException</text>
</g>
<!-- CryptnoxException&#45;&gt;PinAuthenticationException -->
<g id="edge15" class="edge">
<title>CryptnoxException&#45;&gt;PinAuthenticationException</title>
<path fill="none" stroke="black" d="M2070.36,-97C2115.71,-97 2168,-97 2168,-97 2168,-97 2168,-59.22 2168,-59.22"/>
<polygon fill="black" stroke="black" points="2170.45,-59.22 2168,-52.22 2165.55,-59.22 2170.45,-59.22"/>
</g>
<!-- SecureChannelException -->
<g id="node17" class="node">
<title>SecureChannelException</title>
<path fill="none" stroke="black" d="M2058,-52C2058,-52 1952,-52 1952,-52 1946,-52 1940,-46 1940,-40 1940,-40 1940,-28 1940,-28 1940,-22 1946,-16 1952,-16 1952,-16 2058,-16 2058,-16 2064,-16 2070,-22 2070,-28 2070,-28 2070,-40 2070,-40 2070,-46 2064,-52 2058,-52"/>
<text text-anchor="middle" x="2005" y="-31.5" font-family="Arial" font-size="10.00">SecureChannelException</text>
</g>
<!-- CryptnoxException&#45;&gt;SecureChannelException -->
<g id="edge16" class="edge">
<title>CryptnoxException&#45;&gt;SecureChannelException</title>
<path fill="none" stroke="black" d="M2005,-94.68C2005,-94.68 2005,-59.22 2005,-59.22"/>
<polygon fill="black" stroke="black" points="2007.45,-59.22 2005,-52.22 2002.55,-59.22 2007.45,-59.22"/>
</g>
<!-- FirmwareException -->
<g id="node18" class="node">
<title>FirmwareException</title>
<path fill="none" stroke="black" d="M3179,-52C3179,-52 3073,-52 3073,-52 3067,-52 3061,-46 3061,-40 3061,-40 3061,-28 3061,-28 3061,-22 3067,-16 3073,-16 3073,-16 3179,-16 3179,-16 3185,-16 3191,-22 3191,-28 3191,-28 3191,-40 3191,-40 3191,-46 3185,-52 3179,-52"/>
<text text-anchor="middle" x="3126" y="-31.5" font-family="Arial" font-size="10.00">FirmwareException</text>
</g>
<!-- CryptnoxException&#45;&gt;FirmwareException -->
<g id="edge17" class="edge">
<title>CryptnoxException&#45;&gt;FirmwareException</title>
<path fill="none" stroke="black" d="M2070.12,-114C2309.36,-114 3126,-114 3126,-114 3126,-114 3126,-59.15 3126,-59.15"/>
<polygon fill="black" stroke="black" points="3128.45,-59.15 3126,-52.15 3123.55,-59.15 3128.45,-59.15"/>
</g>
<!-- GenericException -->
<g id="node19" class="node">
<title>GenericException</title>
<path fill="none" stroke="black" d="M3020,-52C3020,-52 2914,-52 2914,-52 2908,-52 2902,-46 2902,-40 2902,-40 2902,-28 2902,-28 2902,-22 2908,-16 2914,-16 2914,-16 3020,-16 3020,-16 3026,-16 3032,-22 3032,-28 3032,-28 3032,-40 3032,-40 3032,-46 3026,-52 3020,-52"/>
<text text-anchor="middle" x="2967" y="-31.5" font-family="Arial" font-size="10.00">GenericException</text>
</g>
<!-- CryptnoxException&#45;&gt;GenericException -->
<g id="edge18" class="edge">
<title>CryptnoxException&#45;&gt;GenericException</title>
<path fill="none" stroke="black" d="M2070.37,-111C2286.89,-111 2967,-111 2967,-111 2967,-111 2967,-59.25 2967,-59.25"/>
<polygon fill="black" stroke="black" points="2969.45,-59.25 2967,-52.25 2964.55,-59.25 2969.45,-59.25"/>
</g>
<!-- GenuineCheckException -->
<g id="node20" class="node">
<title>GenuineCheckException</title>
<path fill="none" stroke="black" d="M2861,-52C2861,-52 2755,-52 2755,-52 2749,-52 2743,-46 2743,-40 2743,-40 2743,-28 2743,-28 2743,-22 2749,-16 2755,-16 2755,-16 2861,-16 2861,-16 2867,-16 2873,-22 2873,-28 2873,-28 2873,-40 2873,-40 2873,-46 2867,-52 2861,-52"/>
<text text-anchor="middle" x="2808" y="-31.5" font-family="Arial" font-size="10.00">GenuineCheckException</text>
</g>
<!-- CryptnoxException&#45;&gt;GenuineCheckException -->
<g id="edge19" class="edge">
<title>CryptnoxException&#45;&gt;GenuineCheckException</title>
<path fill="none" stroke="black" d="M2070.03,-108C2261.2,-108 2808,-108 2808,-108 2808,-108 2808,-59.29 2808,-59.29"/>
<polygon fill="black" stroke="black" points="2810.45,-59.29 2808,-52.29 2805.55,-59.29 2810.45,-59.29"/>
</g>
<!-- InitializationException -->
<g id="node21" class="node">
<title>InitializationException</title>
<path fill="none" stroke="black" d="M2702,-52C2702,-52 2596,-52 2596,-52 2590,-52 2584,-46 2584,-40 2584,-40 2584,-28 2584,-28 2584,-22 2590,-16 2596,-16 2596,-16 2702,-16 2702,-16 2708,-16 2714,-22 2714,-28 2714,-28 2714,-40 2714,-40 2714,-46 2708,-52 2702,-52"/>
<text text-anchor="middle" x="2649" y="-31.5" font-family="Arial" font-size="10.00">InitializationException</text>
</g>
<!-- CryptnoxException&#45;&gt;InitializationException -->
<g id="edge20" class="edge">
<title>CryptnoxException&#45;&gt;InitializationException</title>
<path fill="none" stroke="black" d="M2070.29,-106C2234.02,-106 2649,-106 2649,-106 2649,-106 2649,-59.17 2649,-59.17"/>
<polygon fill="black" stroke="black" points="2651.45,-59.17 2649,-52.17 2646.55,-59.17 2651.45,-59.17"/>
</g>
<!-- EOSKeyError -->
<g id="node22" class="node">
<title>EOSKeyError</title>
<path fill="none" stroke="black" d="M3974,-52C3974,-52 3868,-52 3868,-52 3862,-52 3856,-46 3856,-40 3856,-40 3856,-28 3856,-28 3856,-22 3862,-16 3868,-16 3868,-16 3974,-16 3974,-16 3980,-16 3986,-22 3986,-28 3986,-28 3986,-40 3986,-40 3986,-46 3980,-52 3974,-52"/>
<text text-anchor="middle" x="3921" y="-31.5" font-family="Arial" font-size="10.00">EOSKeyError</text>
</g>
<!-- CryptnoxException&#45;&gt;EOSKeyError -->
<g id="edge21" class="edge">
<title>CryptnoxException&#45;&gt;EOSKeyError</title>
<path fill="none" stroke="black" d="M2070.12,-128C2405.37,-128 3921,-128 3921,-128 3921,-128 3921,-59.12 3921,-59.12"/>
<polygon fill="black" stroke="black" points="3923.45,-59.12 3921,-52.12 3918.55,-59.12 3923.45,-59.12"/>
</g>
<!-- ReadPublicKeyException -->
<g id="node23" class="node">
<title>ReadPublicKeyException</title>
<path fill="none" stroke="black" d="M3815,-52C3815,-52 3709,-52 3709,-52 3703,-52 3697,-46 3697,-40 3697,-40 3697,-28 3697,-28 3697,-22 3703,-16 3709,-16 3709,-16 3815,-16 3815,-16 3821,-16 3827,-22 3827,-28 3827,-28 3827,-40 3827,-40 3827,-46 3821,-52 3815,-52"/>
<text text-anchor="middle" x="3762" y="-31.5" font-family="Arial" font-size="10.00">ReadPublicKeyException</text>
</g>
<!-- CryptnoxException&#45;&gt;ReadPublicKeyException -->
<g id="edge22" class="edge">
<title>CryptnoxException&#45;&gt;ReadPublicKeyException</title>
<path fill="none" stroke="black" d="M2070.14,-125C2388.12,-125 3762,-125 3762,-125 3762,-125 3762,-59.42 3762,-59.42"/>
<polygon fill="black" stroke="black" points="3764.45,-59.42 3762,-52.42 3759.55,-59.42 3764.45,-59.42"/>
</g>
<!-- ReaderException -->
<g id="node24" class="node">
<title>ReaderException</title>
<path fill="none" stroke="black" d="M3656,-52C3656,-52 3550,-52 3550,-52 3544,-52 3538,-46 3538,-40 3538,-40 3538,-28 3538,-28 3538,-22 3544,-16 3550,-16 3550,-16 3656,-16 3656,-16 3662,-16 3668,-22 3668,-28 3668,-28 3668,-40 3668,-40 3668,-46 3662,-52 3656,-52"/>
<text text-anchor="middle" x="3603" y="-31.5" font-family="Arial" font-size="10.00">ReaderException</text>
</g>
<!-- CryptnoxException&#45;&gt;ReaderException -->
<g id="edge23" class="edge">
<title>CryptnoxException&#45;&gt;ReaderException</title>
<path fill="none" stroke="black" d="M2070.12,-122C2369.95,-122 3603,-122 3603,-122 3603,-122 3603,-59.23 3603,-59.23"/>
<polygon fill="black" stroke="black" points="3605.45,-59.23 3603,-52.23 3600.55,-59.23 3605.45,-59.23"/>
</g>
<!-- SeedException -->
<g id="node25" class="node">
<title>SeedException</title>
<path fill="none" stroke="black" d="M3497,-52C3497,-52 3391,-52 3391,-52 3385,-52 3379,-46 3379,-40 3379,-40 3379,-28 3379,-28 3379,-22 3385,-16 3391,-16 3391,-16 3497,-16 3497,-16 3503,-16 3509,-22 3509,-28 3509,-28 3509,-40 3509,-40 3509,-46 3503,-52 3497,-52"/>
<text text-anchor="middle" x="3444" y="-31.5" font-family="Arial" font-size="10.00">SeedException</text>
</g>
<!-- CryptnoxException&#45;&gt;SeedException -->
<g id="edge24" class="edge">
<title>CryptnoxException&#45;&gt;SeedException</title>
<path fill="none" stroke="black" d="M2070.1,-119C2350.86,-119 3444,-119 3444,-119 3444,-119 3444,-59.03 3444,-59.03"/>
<polygon fill="black" stroke="black" points="3446.45,-59.03 3444,-52.03 3441.55,-59.03 3446.45,-59.03"/>
</g>
<!-- SoftLock -->
<g id="node26" class="node">
<title>SoftLock</title>
<path fill="none" stroke="black" d="M3338,-52C3338,-52 3232,-52 3232,-52 3226,-52 3220,-46 3220,-40 3220,-40 3220,-28 3220,-28 3220,-22 3226,-16 3232,-16 3232,-16 3338,-16 3338,-16 3344,-16 3350,-22 3350,-28 3350,-28 3350,-40 3350,-40 3350,-46 3344,-52 3338,-52"/>
<text text-anchor="middle" x="3285" y="-31.5" font-family="Arial" font-size="10.00">SoftLock</text>
</g>
<!-- CryptnoxException&#45;&gt;SoftLock -->
<g id="edge25" class="edge">
<title>CryptnoxException&#45;&gt;SoftLock</title>
<path fill="none" stroke="black" d="M2070.24,-117C2331.07,-117 3285,-117 3285,-117 3285,-117 3285,-59.01 3285,-59.01"/>
<polygon fill="black" stroke="black" points="3287.45,-59.01 3285,-52.01 3282.55,-59.01 3287.45,-59.01"/>
</g>
</g>
</svg>
